<?xml version="1.0" standalone="no"?>
<!DOCTYPE svg PUBLIC "-//W3C//DTD SVG 20010904//EN"
 "http://www.w3.org/TR/2001/REC-SVG-20010904/DTD/svg10.dtd">
<svg version="1.0" xmlns="http://www.w3.org/2000/svg"
 width="40.000000pt" height="69.000000pt" viewBox="0 0 40.000000 69.000000"
 preserveAspectRatio="xMidYMid meet">

<g transform="translate(0.000000,69.000000) scale(0.100000,-0.100000)"
fill="#000000" stroke="none">
<path d="M160 670 c-13 -9 -13 -10 0 -10 9 0 23 -9 32 -19 15 -18 15 -20 -5
-25 -35 -9 -47 -7 -47 8 0 34 -15 20 -16 -15 -2 -27 2 -37 10 -32 6 4 5 -1 -3
-10 -7 -9 -9 -17 -4 -17 6 0 9 -11 8 -25 -2 -14 1 -27 6 -31 5 -3 7 -10 4 -15
-4 -5 -2 -9 3 -9 5 0 8 -11 7 -25 -2 -14 1 -27 5 -30 5 -3 7 -12 3 -20 -3 -8
0 -15 6 -15 16 0 13 -26 -4 -40 -21 -18 -32 -4 -39 50 -3 25 -11 47 -16 48 -7
3 -7 9 1 18 8 10 8 14 1 14 -6 0 -9 6 -6 14 3 7 -2 20 -10 28 -11 12 -12 18
-3 28 10 10 7 11 -13 6 -21 -6 -22 -5 -7 4 24 15 22 34 -2 21 -15 -8 -20 -7
-25 5 -10 27 -7 34 19 44 14 5 25 14 25 20 0 17 -51 -22 -60 -45 -8 -21 0 -81
13 -102 3 -5 9 -25 12 -44 9 -46 13 -64 15 -64 1 0 3 -9 5 -19 10 -52 17 -65
36 -71 12 -4 24 -3 28 2 3 5 25 17 48 27 35 15 40 21 29 30 -17 13 -24 55 -13
74 6 8 2 12 -10 12 -15 0 -16 2 -3 10 22 14 27 12 33 -9 3 -13 -1 -22 -12 -24
-13 -4 -12 -6 6 -12 15 -5 23 -16 25 -38 3 -29 -1 -34 -46 -57 -29 -15 -42
-26 -33 -28 18 -4 32 -36 22 -52 -3 -5 -2 -10 3 -10 5 0 9 -14 10 -30 0 -17 4
-39 7 -51 7 -22 -21 -63 -36 -53 -5 3 -9 -9 -9 -25 0 -20 5 -31 15 -31 7 0 19
-8 24 -17 8 -14 10 -15 11 -3 0 13 1 13 10 0 7 -11 9 -7 5 15 -2 17 -6 58 -9
93 -5 50 -3 62 9 62 9 0 15 -10 16 -22 1 -22 1 -22 9 2 6 17 8 1 9 -54 1 -107
9 -93 12 23 2 67 0 96 -9 99 -8 2 -10 -3 -6 -15 4 -14 4 -15 -4 -4 -5 7 -14
11 -19 8 -5 -3 -10 5 -11 18 -1 13 -3 29 -4 36 -2 7 18 17 45 24 53 15 95 39
104 61 10 26 -18 75 -41 73 -12 0 -28 -1 -36 0 -13 1 -13 2 0 11 9 6 11 10 3
10 -7 0 -10 7 -7 15 4 9 1 15 -7 15 -8 0 -6 5 6 14 18 13 18 14 -1 39 -10 14
-26 28 -34 30 -11 4 -11 5 3 6 25 2 21 21 -5 22 -17 1 -19 2 -5 6 23 6 22 23
-3 23 -14 0 -18 5 -13 17 4 11 8 12 11 5 2 -7 14 -12 27 -12 28 0 45 -20 18
-21 -10 0 -13 -3 -6 -5 7 -3 9 -12 6 -20 -6 -16 22 -20 32 -4 3 6 2 10 -3 10
-5 0 -7 11 -5 24 10 48 -96 89 -147 56z m20 -80 c0 -5 -8 -10 -17 -10 -15 0
-16 2 -3 10 19 12 20 12 20 0z m15 -30 c-3 -5 -14 -10 -23 -10 -15 0 -15 2 -2
10 20 13 33 13 25 0z m0 -30 c-28 -12 -37 -12 -30 0 3 6 16 10 28 9 21 0 21
-1 2 -9z m-1 -30 c-10 -4 -21 -6 -24 -3 -8 7 24 22 34 16 5 -4 1 -10 -10 -13z
m16 -20 c0 -5 -8 -10 -17 -10 -15 0 -16 2 -3 10 19 12 20 12 20 0z m132 -78
c-6 -2 -12 -13 -13 -25 0 -22 0 -22 -10 1 -5 13 -13 20 -19 17 -5 -3 -10 -2
-10 4 0 13 21 19 45 13 11 -3 14 -7 7 -10z"/>
<path d="M292 546 c10 -7 15 -16 11 -19 -3 -4 2 -7 11 -7 12 0 16 5 12 16 -3
9 -6 18 -6 20 0 2 -10 4 -22 4 -21 -1 -22 -2 -6 -14z"/>
<path d="M305 500 c-3 -5 1 -10 9 -10 8 0 18 5 21 10 3 6 -1 10 -9 10 -8 0
-18 -4 -21 -10z"/>
<path d="M319 483 c-11 -3 -15 -11 -12 -24 6 -20 28 -26 38 -9 3 6 2 10 -4 10
-6 0 -8 7 -5 15 4 8 5 14 3 14 -2 -1 -11 -3 -20 -6z"/>
<path d="M240 240 c0 -5 7 -7 15 -4 8 4 15 8 15 10 0 2 -7 4 -15 4 -8 0 -15
-4 -15 -10z"/>
</g>
</svg>
